<svg width="61" height="61" viewBox="0 0 61 61" fill="none" xmlns="http://www.w3.org/2000/svg">
<path d="M29.5 59.5C44.964 59.5 57.5 46.964 57.5 31.5C57.5 16.036 44.964 3.5 29.5 3.5C14.036 3.5 1.5 16.036 1.5 31.5C1.5 46.964 14.036 59.5 29.5 59.5Z" stroke="#BA3FD9" stroke-miterlimit="10" stroke-linecap="square"/>
<path d="M13.5 44.5C14.6046 44.5 15.5 43.6046 15.5 42.5C15.5 41.3954 14.6046 40.5 13.5 40.5C12.3954 40.5 11.5 41.3954 11.5 42.5C11.5 43.6046 12.3954 44.5 13.5 44.5Z" stroke="#BA3FD9" stroke-miterlimit="10" stroke-linecap="square"/>
<path d="M41.5 36.5C42.6046 36.5 43.5 35.6046 43.5 34.5C43.5 33.3954 42.6046 32.5 41.5 32.5C40.3954 32.5 39.5 33.3954 39.5 34.5C39.5 35.6046 40.3954 36.5 41.5 36.5Z" stroke="#BA3FD9" stroke-miterlimit="10" stroke-linecap="square"/>
<path d="M15 42.5C15 43.3284 14.3284 44 13.5 44C12.6716 44 12 43.3284 12 42.5C12 41.6716 12.6716 41 13.5 41C14.3284 41 15 41.6716 15 42.5Z" fill="black" stroke="#BA3FD9"/>
<path d="M43 34.5C43 35.3284 42.3284 36 41.5 36C40.6716 36 40 35.3284 40 34.5C40 33.6716 40.6716 33 41.5 33C42.3284 33 43 33.6716 43 34.5Z" fill="black" stroke="#BA3FD9"/>
<path d="M31 24.5C34.0376 24.5 36.5 22.0376 36.5 19C36.5 15.9624 34.0376 13.5 31 13.5C27.9624 13.5 25.5 15.9624 25.5 19C25.5 22.0376 27.9624 24.5 31 24.5Z" stroke="#BA3FD9" stroke-miterlimit="10" stroke-linecap="square"/>
<path d="M58.4998 48.5C60.7608 53.536 61.1988 57.458 59.3278 59.328C54.7608 63.895 38.1638 54.708 22.1998 38.796L22.2028 38.799C6.29176 22.835 -2.89524 6.23801 1.67176 1.67201C3.54076 -0.197991 7.46676 0.241009 12.4998 2.50001" stroke="#BA3FD9" stroke-miterlimit="10" stroke-linecap="square"/>
</svg>
